<svg xmlns="http://www.w3.org/2000/svg" viewBox="0 0 500 400" width="500" height="400">
  <defs>
    <linearGradient id="skyGrad" x1="0" y1="0" x2="0" y2="1">
      <stop offset="0%" stop-color="#1a1a1a"/>
      <stop offset="100%" stop-color="#2e2e2e"/>
    </linearGradient>
    <linearGradient id="groundGrad" x1="0" y1="0" x2="0" y2="1">
      <stop offset="0%" stop-color="#3a3a3a"/>
      <stop offset="100%" stop-color="#1a1a1a"/>
    </linearGradient>
    <linearGradient id="buildingGrad" x1="0" y1="0" x2="1" y2="0">
      <stop offset="0%" stop-color="#2a2a2a"/>
      <stop offset="100%" stop-color="#383838"/>
    </linearGradient>
    <linearGradient id="towerGrad" x1="0" y1="0" x2="1" y2="0">
      <stop offset="0%" stop-color="#252525"/>
      <stop offset="100%" stop-color="#353535"/>
    </linearGradient>
  </defs>

  <!-- Background sky -->
  <rect width="500" height="400" fill="url(#skyGrad)"/>

  <!-- Stars -->
  <circle cx="40" cy="30" r="1.2" fill="#619bba" opacity="0.6"/>
  <circle cx="90" cy="55" r="1" fill="white" opacity="0.4"/>
  <circle cx="150" cy="20" r="1.5" fill="white" opacity="0.3"/>
  <circle cx="320" cy="35" r="1" fill="#619bba" opacity="0.5"/>
  <circle cx="400" cy="50" r="1.2" fill="white" opacity="0.4"/>
  <circle cx="460" cy="25" r="1" fill="white" opacity="0.3"/>
  <circle cx="480" cy="65" r="1.3" fill="#619bba" opacity="0.5"/>
  <circle cx="200" cy="45" r="0.8" fill="white" opacity="0.3"/>
  <circle cx="260" cy="18" r="1" fill="white" opacity="0.4"/>

  <!-- Moon -->
  <circle cx="430" cy="55" r="22" fill="#619bba" opacity="0.15"/>
  <circle cx="430" cy="55" r="16" fill="none" stroke="#619bba" stroke-width="1.5" opacity="0.4"/>

  <!-- Ground -->
  <rect x="0" y="340" width="500" height="60" fill="url(#groundGrad)"/>
  <!-- Ground line highlight -->
  <line x1="0" y1="340" x2="500" y2="340" stroke="#619bba" stroke-width="1.5" opacity="0.5"/>

  <!-- ── Left small building ── -->
  <rect x="30" y="240" width="70" height="100" fill="url(#buildingGrad)"/>
  <!-- Windows left building -->
  <rect x="42" y="255" width="14" height="12" fill="#619bba" opacity="0.7" rx="1"/>
  <rect x="64" y="255" width="14" height="12" fill="#619bba" opacity="0.4" rx="1"/>
  <rect x="42" y="278" width="14" height="12" fill="#619bba" opacity="0.3" rx="1"/>
  <rect x="64" y="278" width="14" height="12" fill="#619bba" opacity="0.6" rx="1"/>
  <rect x="42" y="301" width="14" height="12" fill="#619bba" opacity="0.5" rx="1"/>
  <rect x="64" y="301" width="14" height="12" fill="#619bba" opacity="0.2" rx="1"/>

  <!-- ── Right small building ── -->
  <rect x="390" y="260" width="80" height="80" fill="url(#buildingGrad)"/>
  <!-- Windows right building -->
  <rect x="402" y="272" width="14" height="12" fill="#619bba" opacity="0.5" rx="1"/>
  <rect x="424" y="272" width="14" height="12" fill="#619bba" opacity="0.3" rx="1"/>
  <rect x="446" y="272" width="14" height="12" fill="#619bba" opacity="0.6" rx="1"/>
  <rect x="402" y="295" width="14" height="12" fill="#619bba" opacity="0.2" rx="1"/>
  <rect x="424" y="295" width="14" height="12" fill="#619bba" opacity="0.5" rx="1"/>
  <rect x="446" y="295" width="14" height="12" fill="#619bba" opacity="0.4" rx="1"/>

  <!-- ── Main tall tower (center) ── -->
  <rect x="185" y="80" width="130" height="260" fill="url(#towerGrad)"/>
  <!-- Tower top accent -->
  <rect x="185" y="80" width="130" height="5" fill="#619bba" opacity="0.8"/>
  <!-- Tower vertical accent lines -->
  <line x1="235" y1="85" x2="235" y2="340" stroke="#619bba" stroke-width="0.5" opacity="0.2"/>
  <line x1="265" y1="85" x2="265" y2="340" stroke="#619bba" stroke-width="0.5" opacity="0.2"/>

  <!-- Tower windows - column 1 -->
  <rect x="198" y="100" width="18" height="14" fill="#619bba" opacity="0.7" rx="1"/>
  <rect x="198" y="126" width="18" height="14" fill="#619bba" opacity="0.4" rx="1"/>
  <rect x="198" y="152" width="18" height="14" fill="#619bba" opacity="0.6" rx="1"/>
  <rect x="198" y="178" width="18" height="14" fill="#619bba" opacity="0.3" rx="1"/>
  <rect x="198" y="204" width="18" height="14" fill="#619bba" opacity="0.5" rx="1"/>
  <rect x="198" y="230" width="18" height="14" fill="#619bba" opacity="0.7" rx="1"/>
  <rect x="198" y="256" width="18" height="14" fill="#619bba" opacity="0.4" rx="1"/>
  <rect x="198" y="282" width="18" height="14" fill="#619bba" opacity="0.6" rx="1"/>
  <rect x="198" y="308" width="18" height="14" fill="#619bba" opacity="0.3" rx="1"/>

  <!-- Tower windows - column 2 -->
  <rect x="241" y="100" width="18" height="14" fill="#619bba" opacity="0.3" rx="1"/>
  <rect x="241" y="126" width="18" height="14" fill="#619bba" opacity="0.6" rx="1"/>
  <rect x="241" y="152" width="18" height="14" fill="#619bba" opacity="0.8" rx="1"/>
  <rect x="241" y="178" width="18" height="14" fill="#619bba" opacity="0.5" rx="1"/>
  <rect x="241" y="204" width="18" height="14" fill="#619bba" opacity="0.3" rx="1"/>
  <rect x="241" y="230" width="18" height="14" fill="#619bba" opacity="0.6" rx="1"/>
  <rect x="241" y="256" width="18" height="14" fill="#619bba" opacity="0.4" rx="1"/>
  <rect x="241" y="282" width="18" height="14" fill="#619bba" opacity="0.7" rx="1"/>
  <rect x="241" y="308" width="18" height="14" fill="#619bba" opacity="0.2" rx="1"/>

  <!-- Tower windows - column 3 -->
  <rect x="284" y="100" width="18" height="14" fill="#619bba" opacity="0.5" rx="1"/>
  <rect x="284" y="126" width="18" height="14" fill="#619bba" opacity="0.3" rx="1"/>
  <rect x="284" y="152" width="18" height="14" fill="#619bba" opacity="0.4" rx="1"/>
  <rect x="284" y="178" width="18" height="14" fill="#619bba" opacity="0.7" rx="1"/>
  <rect x="284" y="204" width="18" height="14" fill="#619bba" opacity="0.6" rx="1"/>
  <rect x="284" y="230" width="18" height="14" fill="#619bba" opacity="0.3" rx="1"/>
  <rect x="284" y="256" width="18" height="14" fill="#619bba" opacity="0.5" rx="1"/>
  <rect x="284" y="282" width="18" height="14" fill="#619bba" opacity="0.4" rx="1"/>
  <rect x="284" y="308" width="18" height="14" fill="#619bba" opacity="0.6" rx="1"/>

  <!-- ── Left mid building ── -->
  <rect x="100" y="160" width="90" height="180" fill="#282828"/>
  <rect x="100" y="160" width="90" height="4" fill="#619bba" opacity="0.6"/>
  <!-- Windows -->
  <rect x="112" y="175" width="15" height="12" fill="#619bba" opacity="0.5" rx="1"/>
  <rect x="135" y="175" width="15" height="12" fill="#619bba" opacity="0.3" rx="1"/>
  <rect x="158" y="175" width="15" height="12" fill="#619bba" opacity="0.6" rx="1"/>
  <rect x="112" y="198" width="15" height="12" fill="#619bba" opacity="0.4" rx="1"/>
  <rect x="135" y="198" width="15" height="12" fill="#619bba" opacity="0.6" rx="1"/>
  <rect x="158" y="198" width="15" height="12" fill="#619bba" opacity="0.3" rx="1"/>
  <rect x="112" y="221" width="15" height="12" fill="#619bba" opacity="0.7" rx="1"/>
  <rect x="135" y="221" width="15" height="12" fill="#619bba" opacity="0.2" rx="1"/>
  <rect x="158" y="221" width="15" height="12" fill="#619bba" opacity="0.5" rx="1"/>
  <rect x="112" y="244" width="15" height="12" fill="#619bba" opacity="0.3" rx="1"/>
  <rect x="135" y="244" width="15" height="12" fill="#619bba" opacity="0.5" rx="1"/>
  <rect x="158" y="244" width="15" height="12" fill="#619bba" opacity="0.4" rx="1"/>
  <rect x="112" y="267" width="15" height="12" fill="#619bba" opacity="0.6" rx="1"/>
  <rect x="135" y="267" width="15" height="12" fill="#619bba" opacity="0.4" rx="1"/>
  <rect x="158" y="267" width="15" height="12" fill="#619bba" opacity="0.2" rx="1"/>
  <rect x="112" y="290" width="15" height="12" fill="#619bba" opacity="0.5" rx="1"/>
  <rect x="135" y="290" width="15" height="12" fill="#619bba" opacity="0.3" rx="1"/>
  <rect x="158" y="290" width="15" height="12" fill="#619bba" opacity="0.6" rx="1"/>

  <!-- ── Right mid building ── -->
  <rect x="310" y="180" width="85" height="160" fill="#2c2c2c"/>
  <rect x="310" y="180" width="85" height="4" fill="#619bba" opacity="0.6"/>
  <!-- Windows -->
  <rect x="322" y="195" width="15" height="12" fill="#619bba" opacity="0.6" rx="1"/>
  <rect x="345" y="195" width="15" height="12" fill="#619bba" opacity="0.3" rx="1"/>
  <rect x="368" y="195" width="15" height="12" fill="#619bba" opacity="0.5" rx="1"/>
  <rect x="322" y="218" width="15" height="12" fill="#619bba" opacity="0.3" rx="1"/>
  <rect x="345" y="218" width="15" height="12" fill="#619bba" opacity="0.5" rx="1"/>
  <rect x="368" y="218" width="15" height="12" fill="#619bba" opacity="0.4" rx="1"/>
  <rect x="322" y="241" width="15" height="12" fill="#619bba" opacity="0.7" rx="1"/>
  <rect x="345" y="241" width="15" height="12" fill="#619bba" opacity="0.4" rx="1"/>
  <rect x="368" y="241" width="15" height="12" fill="#619bba" opacity="0.2" rx="1"/>
  <rect x="322" y="264" width="15" height="12" fill="#619bba" opacity="0.4" rx="1"/>
  <rect x="345" y="264" width="15" height="12" fill="#619bba" opacity="0.6" rx="1"/>
  <rect x="368" y="264" width="15" height="12" fill="#619bba" opacity="0.3" rx="1"/>
  <rect x="322" y="287" width="15" height="12" fill="#619bba" opacity="0.5" rx="1"/>
  <rect x="345" y="287" width="15" height="12" fill="#619bba" opacity="0.2" rx="1"/>
  <rect x="368" y="287" width="15" height="12" fill="#619bba" opacity="0.6" rx="1"/>
  <rect x="322" y="310" width="15" height="12" fill="#619bba" opacity="0.3" rx="1"/>
  <rect x="345" y="310" width="15" height="12" fill="#619bba" opacity="0.5" rx="1"/>
  <rect x="368" y="310" width="15" height="12" fill="#619bba" opacity="0.4" rx="1"/>

  <!-- Ground road line -->
  <rect x="0" y="355" width="500" height="2" fill="#619bba" opacity="0.15"/>

  <!-- Crane arm -->
  <line x1="185" y1="80" x2="130" y2="80" stroke="#619bba" stroke-width="3" opacity="0.7"/>
  <line x1="185" y1="80" x2="185" y2="55" stroke="#619bba" stroke-width="3" opacity="0.7"/>
  <line x1="185" y1="55" x2="130" y2="55" stroke="#619bba" stroke-width="2" opacity="0.5"/>
  <line x1="155" y1="55" x2="155" y2="75" stroke="#619bba" stroke-width="1.5" opacity="0.5"/>
  <!-- Crane hook -->
  <circle cx="155" cy="78" r="4" fill="none" stroke="#619bba" stroke-width="1.5" opacity="0.6"/>

  <!-- Gold reflection on ground -->
  <rect x="185" y="340" width="130" height="20" fill="#619bba" opacity="0.06"/>
</svg>
